<svg width="501" height="500" viewBox="0 0 501 500" fill="none" xmlns="http://www.w3.org/2000/svg">
<g clip-path="url(#clip0_100_3313)">
<path d="M500.5 382.4H0.5V382.65H500.5V382.4Z" fill="#EBEBEB"/>
<path d="M450.4 398.49H417.28V398.74H450.4V398.49Z" fill="#EBEBEB"/>
<path d="M331.72 401.21H323.03V401.46H331.72V401.21Z" fill="#EBEBEB"/>
<path d="M416.28 389.21H397.09V389.46H416.28V389.21Z" fill="#EBEBEB"/>
<path d="M96.15 390.89H52.96V391.14H96.15V390.89Z" fill="#EBEBEB"/>
<path d="M111.39 390.89H105.06V391.14H111.39V390.89Z" fill="#EBEBEB"/>
<path d="M225.65 395.11H131.97V395.36H225.65V395.11Z" fill="#EBEBEB"/>
<path d="M237.5 337.8H44.41C42.8973 337.797 41.4476 337.195 40.3789 336.124C39.3102 335.053 38.71 333.603 38.71 332.09V60.66C38.7232 59.156 39.3292 57.718 40.3964 56.6582C41.4637 55.5985 42.906 55.0026 44.41 55H237.5C239.014 55 240.467 55.6016 241.538 56.6724C242.608 57.7433 243.21 59.1956 243.21 60.71V332.09C243.21 333.604 242.608 335.057 241.538 336.128C240.467 337.198 239.014 337.8 237.5 337.8ZM44.41 55.2C42.9637 55.2026 41.5774 55.7791 40.5557 56.8027C39.5339 57.8264 38.96 59.2136 38.96 60.66V332.09C38.96 333.536 39.5339 334.924 40.5557 335.947C41.5774 336.971 42.9637 337.547 44.41 337.55H237.5C238.947 337.547 240.335 336.971 241.358 335.948C242.381 334.924 242.957 333.537 242.96 332.09V60.66C242.957 59.2127 242.381 57.8255 241.358 56.8021C240.335 55.7787 238.947 55.2026 237.5 55.2H44.41Z" fill="#EBEBEB"/>
<path d="M453.81 337.8H260.71C259.196 337.797 257.746 337.195 256.675 336.125C255.605 335.054 255.003 333.604 255 332.09V60.66C255.016 59.1551 255.624 57.7171 256.693 56.6576C257.762 55.5981 259.205 55.0025 260.71 55H453.81C455.312 55.0052 456.752 55.6022 457.817 56.6617C458.882 57.7212 459.487 59.1578 459.5 60.66V332.09C459.5 333.601 458.901 335.05 457.835 336.121C456.768 337.191 455.321 337.795 453.81 337.8ZM260.71 55.2C259.263 55.2026 257.875 55.7787 256.852 56.8021C255.829 57.8255 255.253 59.2127 255.25 60.66V332.09C255.253 333.537 255.829 334.924 256.852 335.948C257.875 336.971 259.263 337.547 260.71 337.55H453.81C455.257 337.547 456.645 336.971 457.668 335.948C458.691 334.924 459.267 333.537 459.27 332.09V60.66C459.267 59.2127 458.691 57.8255 457.668 56.8021C456.645 55.7787 455.257 55.2026 453.81 55.2H260.71Z" fill="#EBEBEB"/>
<path d="M67.29 382.4H202.99L202.99 95.6099H67.29L67.29 382.4Z" fill="#E6E6E6"/>
<path d="M64.28 382.4H199.98L199.98 95.6099H64.28L64.28 382.4Z" fill="#F5F5F5"/>
<path d="M194.57 376.32L194.57 101.69L69.7 101.69L69.7 376.32H194.57Z" fill="#FAFAFA"/>
<path d="M165.81 376.32L134.17 101.69H98.45L130.09 376.32H165.81Z" fill="white"/>
<path d="M71.98 376.32L71.98 101.69H69.7L69.7 376.32H71.98Z" fill="#E6E6E6"/>
<path d="M66.52 133.64L197.74 133.64V125.48L66.52 125.48V133.64Z" fill="#F5F5F5"/>
<path d="M274.73 382.4V216H219.94V382.4H274.73Z" fill="#F0F0F0"/>
<path d="M271.72 269.63V220.86H222.95V269.63H271.72Z" fill="#F5F5F5"/>
<path d="M271.72 322.78V274.01H222.95V322.78H271.72Z" fill="#F5F5F5"/>
<path d="M271.72 375.93V327.16H222.95V375.93H271.72Z" fill="#F5F5F5"/>
<path d="M258.13 220.22H236.5C236.493 220.885 236.619 221.545 236.871 222.161C237.122 222.776 237.494 223.336 237.964 223.806C238.434 224.276 238.994 224.648 239.61 224.899C240.225 225.151 240.885 225.277 241.55 225.27H253.03C253.697 225.275 254.358 225.149 254.976 224.898C255.594 224.646 256.156 224.275 256.63 223.806C257.104 223.337 257.481 222.778 257.738 222.163C257.996 221.547 258.129 220.887 258.13 220.22Z" fill="#E6E6E6"/>
<path d="M258.13 273.37H236.5C236.5 274.71 237.032 275.996 237.979 276.945C238.925 277.893 240.21 278.427 241.55 278.43H253.03C253.697 278.434 254.359 278.306 254.977 278.054C255.595 277.801 256.157 277.429 256.631 276.959C257.105 276.489 257.481 275.93 257.738 275.314C257.996 274.698 258.129 274.038 258.13 273.37Z" fill="#E6E6E6"/>
<path d="M258.13 326.52H236.5C236.5 327.86 237.032 329.146 237.979 330.094C238.925 331.043 240.21 331.577 241.55 331.58H253.03C253.697 331.584 254.359 331.456 254.977 331.204C255.595 330.951 256.157 330.579 256.631 330.109C257.105 329.639 257.481 329.08 257.738 328.464C257.996 327.848 258.129 327.188 258.13 326.52Z" fill="#E6E6E6"/>
<path d="M302.09 382.4V216H274.72V382.4H302.09Z" fill="#F5F5F5"/>
<path d="M420.99 378.31H436.18V253.03H420.99V378.31Z" fill="#F0F0F0"/>
<path d="M288.22 382.4H434.08V378.31H288.22V382.4Z" fill="#F0F0F0"/>
<path d="M420.99 253.03H286.11V378.31H420.99V253.03Z" fill="#FAFAFA"/>
<path d="M312.5 326.24H394.56C398.435 326.24 402.151 324.701 404.891 321.961C407.631 319.221 409.17 315.505 409.17 311.63C409.17 307.755 407.631 304.039 404.891 301.299C402.151 298.559 398.435 297.02 394.56 297.02H312.5C308.625 297.02 304.909 298.559 302.169 301.299C299.429 304.039 297.89 307.755 297.89 311.63C297.89 315.505 299.429 319.221 302.169 321.961C304.909 324.701 308.625 326.24 312.5 326.24ZM394.58 298C396.37 298 398.142 298.353 399.796 299.038C401.45 299.723 402.952 300.726 404.218 301.992C405.484 303.258 406.488 304.76 407.172 306.414C407.857 308.068 408.21 309.84 408.21 311.63C408.21 313.42 407.857 315.192 407.172 316.846C406.488 318.5 405.484 320.002 404.218 321.268C402.952 322.534 401.45 323.538 399.796 324.223C398.142 324.907 396.37 325.26 394.58 325.26H312.5C308.885 325.26 305.418 323.824 302.862 321.268C300.306 318.712 298.87 315.245 298.87 311.63C298.87 308.015 300.306 304.548 302.862 301.992C305.418 299.436 308.885 298 312.5 298H394.58Z" fill="#F0F0F0"/>
<path d="M312.5 362.59H394.56C398.435 362.59 402.151 361.051 404.891 358.311C407.631 355.571 409.17 351.855 409.17 347.98C409.17 344.105 407.631 340.389 404.891 337.649C402.151 334.909 398.435 333.37 394.56 333.37H312.5C308.625 333.37 304.909 334.909 302.169 337.649C299.429 340.389 297.89 344.105 297.89 347.98C297.89 351.855 299.429 355.571 302.169 358.311C304.909 361.051 308.625 362.59 312.5 362.59ZM394.56 334.35C396.38 334.301 398.192 334.617 399.888 335.279C401.584 335.942 403.131 336.938 404.436 338.208C405.741 339.478 406.778 340.996 407.486 342.674C408.194 344.352 408.559 346.154 408.559 347.975C408.559 349.796 408.194 351.599 407.486 353.276C406.778 354.954 405.741 356.473 404.436 357.743C403.131 359.013 401.584 360.008 399.888 360.671C398.192 361.334 396.38 361.649 394.56 361.6H312.5C310.68 361.649 308.868 361.334 307.172 360.671C305.476 360.008 303.929 359.013 302.624 357.743C301.319 356.473 300.282 354.954 299.574 353.276C298.866 351.599 298.501 349.796 298.501 347.975C298.501 346.154 298.866 344.352 299.574 342.674C300.282 340.996 301.319 339.478 302.624 338.208C303.929 336.938 305.476 335.942 307.172 335.279C308.868 334.617 310.68 334.301 312.5 334.35H394.56Z" fill="#F0F0F0"/>
<path d="M341.17 308.48H365.93C366.738 308.477 367.512 308.155 368.084 307.584C368.655 307.012 368.977 306.238 368.98 305.43C368.977 304.622 368.655 303.848 368.084 303.276C367.512 302.705 366.738 302.383 365.93 302.38H341.17C340.362 302.383 339.588 302.705 339.016 303.276C338.445 303.848 338.123 304.622 338.12 305.43C338.123 306.238 338.445 307.012 339.016 307.584C339.588 308.155 340.362 308.477 341.17 308.48Z" fill="#EBEBEB"/>
<path d="M312.5 289.89H394.56C398.435 289.89 402.151 288.351 404.891 285.611C407.631 282.871 409.17 279.155 409.17 275.28C409.17 271.405 407.631 267.689 404.891 264.949C402.151 262.209 398.435 260.67 394.56 260.67H312.5C308.625 260.67 304.909 262.209 302.169 264.949C299.429 267.689 297.89 271.405 297.89 275.28C297.89 279.155 299.429 282.871 302.169 285.611C304.909 288.351 308.625 289.89 312.5 289.89ZM394.56 261.65C398.175 261.65 401.642 263.086 404.198 265.642C406.754 268.198 408.19 271.665 408.19 275.28C408.19 278.895 406.754 282.362 404.198 284.918C401.642 287.474 398.175 288.91 394.56 288.91H312.5C308.885 288.91 305.418 287.474 302.862 284.918C300.306 282.362 298.87 278.895 298.87 275.28C298.87 271.665 300.306 268.198 302.862 265.642C305.418 263.086 308.885 261.65 312.5 261.65H394.56Z" fill="#F0F0F0"/>
<path d="M341.17 272.13H365.93C366.738 272.127 367.512 271.805 368.084 271.234C368.655 270.662 368.977 269.888 368.98 269.08C368.967 268.28 368.64 267.517 368.069 266.956C367.499 266.394 366.73 266.08 365.93 266.08H341.17C340.37 266.08 339.601 266.394 339.031 266.956C338.46 267.517 338.133 268.28 338.12 269.08C338.123 269.888 338.445 270.662 339.016 271.234C339.588 271.805 340.362 272.127 341.17 272.13Z" fill="#EBEBEB"/>
<path d="M341.17 344.82H365.93C366.73 344.82 367.499 344.505 368.069 343.944C368.64 343.383 368.967 342.62 368.98 341.82C368.964 341.02 368.636 340.259 368.066 339.698C367.496 339.138 366.73 338.822 365.93 338.82H341.17C340.37 338.822 339.604 339.138 339.034 339.698C338.464 340.259 338.136 341.02 338.12 341.82C338.133 342.62 338.46 343.383 339.031 343.944C339.601 344.505 340.37 344.82 341.17 344.82Z" fill="#EBEBEB"/>
<path d="M283.33 253.03L420.98 253.03V246.66L283.33 246.66V253.03Z" fill="#F0F0F0"/>
<path d="M439.16 246.67H420.99V253.04H439.16V246.67Z" fill="#E6E6E6"/>
<path d="M322.5 146.39C325.57 147.93 333.89 146.27 331.12 151.9C329.525 154.849 327.617 157.619 325.43 160.16C322.33 163.99 322.92 168.16 326.58 169.64C327.365 169.909 328.058 170.395 328.58 171.04C330.27 173.46 326.29 176.7 324.33 179.12C322.37 181.54 321.59 183.92 323.03 185.72C324.63 187.72 327.95 186.97 330.59 187.57C336.93 189.02 330.41 197.77 331.08 202.26C331.54 205.34 334.08 206.2 337.43 206.63C340.2 206.99 343.89 207.24 344.04 210.07C344.18 212.53 340.98 215.31 340.14 217.89C339.741 219 339.59 220.184 339.697 221.359C339.805 222.533 340.167 223.671 340.76 224.69C341.323 225.55 342.058 226.283 342.918 226.844C343.779 227.406 344.746 227.782 345.76 227.95C348.9 228.61 353.65 227.95 353.88 231.47C353.98 233.05 352.88 234.47 353.64 235.91C354.061 236.518 354.609 237.026 355.246 237.401C355.883 237.776 356.594 238.008 357.33 238.08C360.337 238.539 363.401 238.485 366.39 237.92C370.08 237.24 375.53 233.99 373.53 230.86C373.185 230.411 372.755 230.035 372.264 229.754C371.773 229.472 371.231 229.291 370.67 229.22C369.79 229.04 367.21 229.32 366.88 228.72C366.55 228.12 367.44 225.81 367.47 224.98C367.561 222.675 367.198 220.375 366.4 218.21C365.381 215.38 363.757 212.807 361.64 210.67C360.76 209.78 359.37 209.13 359.19 207.84C359.01 206.55 359.82 205.13 360.72 203.84C362.13 201.84 364.32 199.96 365.11 197.84C366.35 194.5 363.34 193.44 360.55 192.68C358.03 191.99 354.71 191.11 355.55 188.05C356.17 185.84 358.96 184.05 359.79 181.87C360.92 178.98 358.18 178.87 356.23 177.87C353.68 176.53 353.04 174.13 353.96 171.1C355.49 166.1 364.66 159.03 359.96 155.78C358.77 154.95 357.66 154.68 356.96 153.43C356.26 152.18 356.08 150.43 355.08 149.25C353.5 147.34 350.23 147.02 348.53 145.25C345.02 141.61 352.59 135.16 345.68 133.62C344.221 133.432 342.839 132.856 341.68 131.95C341.05 131.36 340.53 128.51 339.82 128.31C336.65 127.43 330.94 133.58 329.14 135.47C326.95 137.75 318.86 144.55 322.5 146.39Z" fill="#E0E0E0"/>
<path d="M376.89 231.21C375.01 227.72 366.78 224.21 372.24 220.21C375.185 218.206 378.353 216.551 381.68 215.28C386.46 213.28 388.16 208.68 385.74 204.87C385.183 204.069 384.839 203.14 384.74 202.17C384.54 198.65 389.79 197.81 392.81 196.54C395.83 195.27 397.81 193.33 397.48 190.59C397.14 187.59 393.82 186.25 391.81 184C386.99 178.58 397.43 173.67 399.24 168.65C400.48 165.21 398.74 162.78 395.98 160.23C393.73 158.14 390.6 155.6 391.98 152.6C393.18 150 397.49 149.14 399.61 147.02C400.588 146.061 401.366 144.918 401.898 143.656C402.43 142.394 402.706 141.039 402.71 139.67C402.662 137.27 401.717 134.976 400.06 133.24C397.64 130.61 393.06 128.36 394.77 124.59C395.53 122.91 397.26 122.16 397.36 120.19C397.329 119.337 397.129 118.499 396.77 117.724C396.411 116.95 395.901 116.255 395.27 115.68C392.928 113.385 390.191 111.532 387.19 110.21C383.57 108.61 377.02 108.56 377.11 113.01C377.223 114.32 377.805 115.545 378.75 116.46C379.44 117.2 381.86 118.51 381.83 119.33C381.8 120.15 379.83 121.96 379.3 122.79C377.974 125.149 377.071 127.72 376.63 130.39C376.011 133.929 376.069 137.553 376.8 141.07C377.09 142.52 377.98 144.07 377.44 145.49C376.9 146.91 375.44 147.87 373.97 148.6C371.66 149.76 368.71 150.35 366.88 152.03C363.99 154.68 366.08 157.64 368.14 160.15C370 162.42 372.45 165.38 370.06 167.99C368.33 169.87 364.9 169.99 363.06 171.68C360.52 173.95 362.87 175.76 364.06 178.04C365.58 181.04 364.87 183.84 362.43 186.37C358.43 190.55 346.53 192.09 348.94 198.37C349.55 199.96 350.37 200.93 350.34 202.65C350.31 204.37 349.52 206.25 349.76 208.1C350.13 211.04 352.84 213.4 353.4 216.27C354.54 222.18 344.4 224.09 349.68 229.95C350.913 231.106 351.829 232.559 352.34 234.17C352.59 235.17 351.51 238.4 352.03 239.05C354.36 241.92 362.69 239.18 365.29 238.35C368.36 237.3 379.14 235.36 376.89 231.21Z" fill="#F5F5F5"/>
<path d="M397.97 223.34C397.97 223.34 396.97 246.67 358.79 246.67C320.61 246.67 319.61 223.34 319.61 223.34H397.97Z" fill="#F0F0F0"/>
<path d="M250.5 427.56C357.582 427.56 444.39 422.492 444.39 416.24C444.39 409.988 357.582 404.92 250.5 404.92C143.418 404.92 56.61 409.988 56.61 416.24C56.61 422.492 143.418 427.56 250.5 427.56Z" fill="#F5F5F5"/>
<g opacity="0.2">
<path d="M361.23 407.87L297.54 290.15L233.85 407.87H361.23Z" fill="#6777EF"/>
<path d="M361.23 208.72L297.54 326.43L233.85 208.72H361.23Z" fill="#6777EF"/>
</g>
<path d="M309.21 278.22L299.89 295.44C299.661 295.864 299.322 296.219 298.908 296.465C298.495 296.712 298.022 296.843 297.54 296.843C297.058 296.843 296.585 296.712 296.172 296.465C295.758 296.219 295.419 295.864 295.19 295.44L285.87 278.22C285.03 276.664 284.608 274.916 284.647 273.147C284.686 271.379 285.183 269.651 286.09 268.133C286.998 266.614 288.284 265.358 289.823 264.486C291.362 263.614 293.101 263.157 294.87 263.16H300.26C302.025 263.166 303.757 263.629 305.29 264.504C306.822 265.38 308.101 266.637 309.003 268.154C309.904 269.671 310.397 271.396 310.433 273.16C310.47 274.924 310.048 276.667 309.21 278.22Z" fill="#6777EF"/>
<path d="M298.55 378.15L327.5 390.05C328.065 390.288 328.531 390.714 328.819 391.255C329.107 391.796 329.201 392.419 329.083 393.021C328.966 393.623 328.645 394.166 328.175 394.559C327.704 394.952 327.113 395.172 326.5 395.18H268.63C268.017 395.172 267.426 394.952 266.955 394.559C266.485 394.166 266.164 393.623 266.047 393.021C265.929 392.419 266.023 391.796 266.311 391.255C266.599 390.714 267.065 390.288 267.63 390.05L296.5 378.15C296.825 378.014 297.173 377.944 297.525 377.944C297.877 377.944 298.225 378.014 298.55 378.15Z" fill="#6777EF"/>
<path d="M297.54 355.51C299.589 355.51 301.25 353.849 301.25 351.8C301.25 349.751 299.589 348.09 297.54 348.09C295.491 348.09 293.83 349.751 293.83 351.8C293.83 353.849 295.491 355.51 297.54 355.51Z" fill="#6777EF"/>
<path d="M297.54 314.96C298.595 314.96 299.45 314.105 299.45 313.05C299.45 311.995 298.595 311.14 297.54 311.14C296.485 311.14 295.63 311.995 295.63 313.05C295.63 314.105 296.485 314.96 297.54 314.96Z" fill="#6777EF"/>
<path d="M297.54 333.69C298.738 333.69 299.71 332.719 299.71 331.52C299.71 330.322 298.738 329.35 297.54 329.35C296.342 329.35 295.37 330.322 295.37 331.52C295.37 332.719 296.342 333.69 297.54 333.69Z" fill="#6777EF"/>
<path d="M360.91 402.06H234.17C232.632 402.065 231.158 402.679 230.071 403.768C228.984 404.857 228.373 406.332 228.37 407.87C228.375 409.407 228.988 410.879 230.075 411.965C231.161 413.052 232.633 413.665 234.17 413.67H360.91C362.447 413.665 363.919 413.052 365.005 411.965C366.092 410.879 366.705 409.407 366.71 407.87C366.707 406.332 366.096 404.857 365.009 403.768C363.922 402.679 362.448 402.065 360.91 402.06Z" fill="#6777EF"/>
<path d="M360.91 202.92H234.17C232.633 202.925 231.161 203.538 230.075 204.625C228.988 205.711 228.375 207.183 228.37 208.72C228.375 210.257 228.988 211.729 230.075 212.815C231.161 213.902 232.633 214.515 234.17 214.52H360.91C362.447 214.515 363.919 213.902 365.005 212.815C366.092 211.729 366.705 210.257 366.71 208.72C366.705 207.183 366.092 205.711 365.005 204.625C363.919 203.538 362.447 202.925 360.91 202.92Z" fill="#6777EF"/>
<path d="M195.13 405.68L188.08 403.39L192.46 386.76L199.51 389.05L195.13 405.68Z" fill="#FF8B7B"/>
<path d="M187.97 402.45L195.89 405.02C196.024 405.06 196.137 405.149 196.206 405.27C196.275 405.392 196.294 405.535 196.26 405.67L194.61 412.07C194.504 412.4 194.273 412.674 193.965 412.833C193.658 412.992 193.3 413.024 192.97 412.92C190.23 411.98 188.97 411.39 185.48 410.26C183.33 409.56 176.27 407.74 173.31 406.78C170.35 405.82 171.38 402.92 172.72 403.06C178.72 403.69 184.12 403.41 186.62 402.49C187.053 402.328 187.528 402.313 187.97 402.45Z" fill="#263238"/>
<path opacity="0.2" d="M199.51 389.06L192.46 386.76L190.2 395.34L197.26 397.63L199.51 389.06Z" fill="black"/>
<path d="M218.78 220.72C218.78 220.72 206.13 279.27 203.16 300.32C199.91 323.37 187.7 392.59 187.7 392.59L200.79 396.21C200.79 396.21 218.93 329.08 224.23 306.67C229.98 282.34 245.23 220.67 245.23 220.67L218.78 220.72Z" fill="#6777EF"/>
<path opacity="0.3" d="M234.42 239.92C229.42 251.26 226.95 275.92 228.89 287.27C232.43 272.72 236.69 255.42 239.98 242.11C238.87 238.25 237.03 234 234.42 239.92Z" fill="black"/>
<path d="M201.12 396.47L187.1 392.61L187.38 386.9L203.16 392.35L201.12 396.47Z" fill="#263238"/>
<path d="M185.07 402.87C185.722 403.06 186.393 403.181 187.07 403.23C187.103 403.232 187.137 403.224 187.166 403.208C187.196 403.192 187.22 403.169 187.237 403.139C187.253 403.11 187.262 403.077 187.26 403.044C187.259 403.01 187.249 402.978 187.23 402.95C187.05 402.72 185.5 400.71 184.53 400.77C184.418 400.775 184.31 400.809 184.215 400.869C184.121 400.929 184.043 401.012 183.99 401.11C183.89 401.255 183.83 401.424 183.816 401.599C183.801 401.775 183.834 401.951 183.91 402.11C184.194 402.493 184.605 402.763 185.07 402.87ZM186.66 402.87C185.32 402.71 184.4 402.37 184.18 401.94C184.134 401.838 184.116 401.726 184.128 401.615C184.141 401.504 184.183 401.399 184.25 401.31C184.275 401.262 184.312 401.221 184.358 401.191C184.403 401.161 184.456 401.144 184.51 401.14C185.03 401.08 186.01 402.06 186.66 402.84V402.87Z" fill="#263238"/>
<path d="M187 403.22H187.08C187.109 403.213 187.136 403.2 187.159 403.181C187.182 403.162 187.199 403.137 187.21 403.11C187.21 403.03 188.06 401.05 187.57 400.11C187.509 399.991 187.421 399.889 187.314 399.811C187.206 399.733 187.081 399.681 186.95 399.66C186.808 399.617 186.656 399.624 186.518 399.678C186.38 399.732 186.265 399.832 186.19 399.96C185.78 400.68 186.35 402.49 186.92 403.14L187 403.22ZM187 400.05C187.067 400.069 187.129 400.102 187.182 400.147C187.236 400.192 187.279 400.247 187.31 400.31C187.478 401.115 187.383 401.952 187.04 402.7C186.556 401.951 186.374 401.047 186.53 400.17C186.53 400.08 186.67 399.98 186.92 400.03L187 400.05Z" fill="#263238"/>
<path d="M232.24 165.13C231.86 166.03 231.54 166.71 231.19 167.47C230.84 168.23 230.46 168.93 230.09 169.65C229.35 171.1 228.57 172.51 227.76 173.92C226.124 176.751 224.321 179.483 222.36 182.1C220.353 184.806 218.129 187.345 215.71 189.69C213.133 192.227 210.211 194.388 207.03 196.11L206.78 196.24C206.375 196.449 205.945 196.604 205.5 196.7C203.222 197.174 200.863 197.081 198.63 196.43C196.774 195.875 195.009 195.053 193.39 193.99C190.673 192.163 188.235 189.954 186.15 187.43C184.213 185.128 182.451 182.685 180.88 180.12C179.328 177.599 177.948 174.977 176.75 172.27C176.441 171.554 176.401 170.751 176.637 170.008C176.873 169.265 177.368 168.631 178.033 168.224C178.698 167.817 179.487 167.663 180.256 167.791C181.025 167.919 181.723 168.32 182.22 168.92L182.32 169.04C183.97 171.04 185.76 173.17 187.56 175.11C189.314 177.041 191.177 178.871 193.14 180.59C194.875 182.162 196.804 183.507 198.88 184.59C199.656 184.989 200.489 185.266 201.35 185.41C201.832 185.499 202.329 185.458 202.79 185.29L201.26 185.88C203.327 184.486 205.211 182.84 206.87 180.98C208.676 178.952 210.346 176.807 211.87 174.56C213.45 172.26 214.95 169.85 216.36 167.37C217.08 166.14 217.77 164.89 218.42 163.62L219.42 161.73C219.73 161.12 220.07 160.42 220.31 159.93L220.37 159.79C221.099 158.251 222.402 157.06 224 156.473C225.598 155.885 227.362 155.948 228.914 156.647C230.466 157.347 231.682 158.627 232.3 160.213C232.918 161.799 232.89 163.565 232.22 165.13H232.24Z" fill="#263238"/>
<path opacity="0.3" d="M215.89 178.71C219.03 170.37 225.7 170.23 228.59 172.44C228.38 172.83 228.16 173.22 227.94 173.61C226.371 176.34 224.652 178.981 222.79 181.52C220.879 184.132 218.777 186.599 216.5 188.9C215.78 189.61 215.04 190.31 214.27 190.99C214.005 186.83 214.555 182.659 215.89 178.71Z" fill="black"/>
<path d="M176.5 172.79L170 173.03L171.62 166.08C173.858 166.191 176.079 166.526 178.25 167.08C178.645 167.199 179.007 167.41 179.305 167.696C179.604 167.981 179.831 168.333 179.968 168.722C180.106 169.112 180.149 169.528 180.096 169.938C180.042 170.347 179.893 170.738 179.66 171.08C179.308 171.596 178.838 172.022 178.288 172.319C177.738 172.617 177.125 172.778 176.5 172.79Z" fill="#FF8B7B"/>
<path d="M180.14 166.92C179.502 166.414 178.772 166.037 177.99 165.81C177.45 168.65 173.99 173.44 173.99 173.44H176.7C177.049 173.441 177.393 173.365 177.71 173.218C178.026 173.071 178.306 172.857 178.53 172.59L180.43 170.31C180.638 170.07 180.796 169.791 180.894 169.489C180.993 169.188 181.029 168.869 181.002 168.553C180.975 168.237 180.885 167.93 180.737 167.649C180.589 167.368 180.386 167.12 180.14 166.92Z" fill="#6777EF"/>
<path d="M165.02 169.83L166.84 164.93L171.6 166.09L169.98 173.03L165.02 169.83Z" fill="#FF8B7B"/>
<path d="M246.75 408.92H239.34L239.08 391.75H246.49L246.75 408.92Z" fill="#FF8B7B"/>
<path d="M238.95 408.06H247.28C247.35 408.057 247.419 408.068 247.484 408.093C247.55 408.117 247.61 408.154 247.661 408.201C247.712 408.248 247.753 408.305 247.782 408.369C247.811 408.432 247.827 408.5 247.83 408.57L248.23 415.16C248.23 415.507 248.094 415.839 247.85 416.086C247.607 416.333 247.277 416.475 246.93 416.48C244.03 416.43 242.65 416.26 238.93 416.26C236.68 416.26 229.15 416.49 226.04 416.49C222.93 416.49 223.04 413.41 224.33 413.13C230.25 411.89 235.53 410.13 237.62 408.52C237.996 408.216 238.467 408.053 238.95 408.06Z" fill="#263238"/>
<path opacity="0.2" d="M246.5 391.76H239.08L239.22 400.61H246.63L246.5 391.76Z" fill="black"/>
<path d="M233.24 220.72C233.24 220.72 230.41 285.13 231.61 306.36C232.93 329.6 235.69 398.47 235.69 398.47H249.27C249.27 398.47 252.69 331.47 253.51 308.47C254.4 283.47 258.43 220.72 258.43 220.72H233.24Z" fill="#6777EF"/>
<path d="M249.82 398.47H235.15L234.03 393.01L250.22 393.82L249.82 398.47Z" fill="#263238"/>
<path d="M236.32 409.35C236.994 409.333 237.664 409.246 238.32 409.09C238.352 409.079 238.38 409.061 238.403 409.036C238.426 409.012 238.442 408.982 238.45 408.95C238.454 408.918 238.449 408.886 238.437 408.856C238.425 408.826 238.405 408.8 238.38 408.78C238.14 408.61 236.04 407.18 235.13 407.54C235.029 407.581 234.939 407.646 234.87 407.729C234.8 407.813 234.752 407.913 234.73 408.02C234.684 408.182 234.681 408.354 234.719 408.518C234.758 408.682 234.837 408.834 234.95 408.96C235.343 409.254 235.831 409.392 236.32 409.35ZM237.82 408.84C236.49 409.1 235.52 409.06 235.17 408.72C235.098 408.636 235.049 408.534 235.028 408.426C235.007 408.317 235.015 408.205 235.05 408.1C235.057 408.046 235.079 407.996 235.112 407.954C235.146 407.912 235.19 407.879 235.24 407.86C235.73 407.67 236.96 408.29 237.82 408.84Z" fill="#263238"/>
<path d="M238.26 409.09C238.286 409.098 238.314 409.098 238.34 409.09C238.365 409.075 238.386 409.055 238.402 409.031C238.418 409.006 238.427 408.979 238.43 408.95C238.43 408.86 238.6 406.73 237.85 406.01C237.755 405.917 237.64 405.846 237.513 405.805C237.386 405.763 237.252 405.751 237.12 405.77C236.974 405.775 236.833 405.829 236.721 405.924C236.609 406.018 236.531 406.147 236.5 406.29C236.32 407.1 237.43 408.65 238.17 409.09C238.199 409.099 238.231 409.099 238.26 409.09ZM237.26 406.09C237.329 406.088 237.397 406.1 237.461 406.126C237.524 406.152 237.582 406.191 237.63 406.24C238.043 406.953 238.215 407.781 238.12 408.6C237.48 408.05 236.74 406.87 236.85 406.34C236.85 406.24 236.93 406.12 237.18 406.09H237.26Z" fill="#263238"/>
<path d="M262.14 160.94C262.251 160.315 262.235 159.673 262.092 159.055C261.949 158.436 261.683 157.853 261.31 157.339C260.936 156.826 260.463 156.393 259.918 156.066C259.374 155.74 258.769 155.527 258.14 155.44H258.06C255.67 155.09 252.67 154.73 249.73 154.59C244.118 154.27 238.492 154.27 232.88 154.59C230.29 154.83 227.76 155.26 225.74 155.65H225.66C224.397 155.905 223.228 156.5 222.278 157.37C221.328 158.241 220.634 159.354 220.27 160.59C217.85 168.74 214.96 185.38 218.74 220.71H258.39C258.67 217.17 257.88 205.65 258.46 190.98C259.04 180.898 260.269 170.864 262.14 160.94Z" fill="#263238"/>
<path opacity="0.3" d="M261.76 163.12C260.94 167.86 259.93 174.31 259.23 181.12C259.23 181.12 255.61 174.02 254.95 167.95C254.29 161.88 259.5 161.42 261.76 163.12Z" fill="black"/>
<g opacity="0.2">
<path d="M235.17 164.06C235.088 164.056 235.009 164.026 234.945 163.973C234.882 163.921 234.837 163.849 234.818 163.769C234.799 163.689 234.806 163.605 234.839 163.529C234.872 163.454 234.928 163.391 235 163.35L247.36 156.94C247.448 156.897 247.549 156.89 247.642 156.92C247.735 156.95 247.813 157.014 247.86 157.1C247.906 157.189 247.915 157.293 247.885 157.388C247.855 157.484 247.788 157.563 247.7 157.61L235.34 164C235.288 164.031 235.23 164.051 235.17 164.06Z" fill="white"/>
<path d="M240.83 164.64C240.781 164.642 240.733 164.633 240.688 164.614C240.643 164.595 240.603 164.567 240.57 164.53L233.79 157.8C233.723 157.728 233.686 157.634 233.686 157.535C233.686 157.437 233.723 157.342 233.79 157.27C233.861 157.201 233.956 157.163 234.055 157.163C234.154 157.163 234.249 157.201 234.32 157.27L241.09 164.01C241.159 164.081 241.198 164.176 241.198 164.275C241.198 164.374 241.159 164.469 241.09 164.54C241.055 164.573 241.015 164.599 240.97 164.616C240.925 164.634 240.878 164.642 240.83 164.64Z" fill="white"/>
<path d="M249.76 154.58C244.151 154.26 238.529 154.26 232.92 154.58H232.64C232.504 155.095 232.472 155.631 232.546 156.158C232.619 156.686 232.798 157.193 233.07 157.65C234.01 159.15 235.98 159.99 238.94 160.15H240.05C248.05 160.15 251.14 155.29 251.27 155.08L251.55 154.63L249.76 154.58Z" fill="white"/>
</g>
<path d="M233.72 154.52C238.62 153.36 239.48 150.33 239.15 147C239.072 146.166 238.942 145.337 238.76 144.52L244.9 139.42L249.41 135.68C248.16 141.11 246.75 151 250.41 154.62C250.41 154.62 247.41 159.62 238.98 159.18C231.91 158.79 233.72 154.52 233.72 154.52Z" fill="#FF8B7B"/>
<path opacity="0.2" d="M238.76 144.52C238.942 145.338 239.072 146.166 239.15 147C241.44 146.54 244.5 144.1 244.82 141.76C244.933 140.985 244.959 140.2 244.9 139.42L238.76 144.52Z" fill="black"/>
<path d="M235.5 118.5C232.17 120.5 232.7 125.5 231.8 129.08C233.92 129.29 237.26 125.52 237.26 125.52L239.26 119.79L235.5 118.5Z" fill="#263238"/>
<path d="M253.21 128.56C251.08 135.62 250.21 139.85 245.69 142.8C244.236 143.772 242.545 144.328 240.798 144.408C239.051 144.488 237.315 144.089 235.779 143.254C234.243 142.419 232.964 141.179 232.081 139.67C231.198 138.161 230.745 136.438 230.77 134.69C230.77 127.96 234.23 117.54 241.95 116.1C243.614 115.744 245.342 115.833 246.961 116.356C248.58 116.88 250.033 117.82 251.174 119.082C252.315 120.345 253.103 121.885 253.461 123.548C253.818 125.212 253.732 126.94 253.21 128.56Z" fill="#FF8B7B"/>
<path d="M246.56 134.55C251.56 128.75 245.31 125.89 250.42 121.86C244.67 122.13 235.2 121.72 233.51 117.78C231.82 113.84 237.02 108.5 241.35 108C246.35 107.42 245.27 113.61 245.27 113.61C245.27 113.61 264.4 112.42 258.33 120.61C262.93 120.33 261.66 127.77 253.66 134.05C251.65 134.72 246.56 134.55 246.56 134.55Z" fill="#263238"/>
<path d="M257.18 120.71C257.18 120.71 261.12 119.54 260.99 116.42C262.41 117.4 262.56 120.38 257.18 120.71Z" fill="#263238"/>
<path d="M254.38 135.93C253.229 137.351 251.621 138.33 249.83 138.7C247.56 139.11 247.03 137.01 248.16 134.96C249.16 133.12 251.59 130.69 253.63 131.2C255.67 131.71 255.83 134.14 254.38 135.93Z" fill="#FF8B7B"/>
<path d="M241.82 128.38C241.68 128.96 241.26 129.38 240.87 129.29C240.48 129.2 240.29 128.68 240.43 128.1C240.57 127.52 240.99 127.1 241.37 127.18C241.75 127.26 241.96 127.79 241.82 128.38Z" fill="#263238"/>
<path d="M235.19 127.05C235.05 127.63 234.63 128.05 234.25 127.97C233.87 127.89 233.66 127.36 233.8 126.78C233.94 126.2 234.36 125.78 234.74 125.86C235.12 125.94 235.33 126.47 235.19 127.05Z" fill="#263238"/>
<path d="M237.23 127.76C236.101 129.406 234.756 130.893 233.23 132.18C233.57 132.546 233.986 132.834 234.449 133.022C234.912 133.21 235.411 133.295 235.91 133.27L237.23 127.76Z" fill="#FF5652"/>
<path d="M237.95 135.31C238.642 135.375 239.341 135.298 240.002 135.085C240.664 134.872 241.276 134.527 241.8 134.07C241.817 134.055 241.831 134.036 241.84 134.016C241.849 133.995 241.854 133.972 241.854 133.95C241.854 133.927 241.849 133.905 241.84 133.884C241.831 133.863 241.817 133.845 241.8 133.83C241.766 133.797 241.722 133.779 241.675 133.779C241.628 133.779 241.584 133.797 241.55 133.83C240.975 134.318 240.295 134.668 239.563 134.85C238.831 135.032 238.067 135.042 237.33 134.88C237.308 134.875 237.285 134.876 237.262 134.88C237.24 134.885 237.219 134.894 237.2 134.907C237.182 134.92 237.166 134.937 237.154 134.956C237.142 134.976 237.134 134.997 237.13 135.02C237.121 135.066 237.131 135.114 237.157 135.153C237.183 135.193 237.224 135.22 237.27 135.23L237.95 135.31Z" fill="#263238"/>
<path d="M244.38 126.76C244.435 126.778 244.495 126.778 244.55 126.76C244.592 126.741 244.63 126.715 244.661 126.681C244.693 126.648 244.717 126.609 244.733 126.566C244.749 126.523 244.756 126.477 244.754 126.431C244.751 126.386 244.74 126.341 244.72 126.3C244.505 125.788 244.167 125.338 243.736 124.989C243.305 124.64 242.795 124.403 242.25 124.3C242.157 124.288 242.064 124.313 241.989 124.369C241.915 124.425 241.865 124.508 241.85 124.6C241.844 124.646 241.848 124.692 241.861 124.737C241.873 124.782 241.895 124.823 241.923 124.859C241.952 124.896 241.988 124.926 242.029 124.948C242.069 124.971 242.114 124.985 242.16 124.99C242.584 125.079 242.979 125.269 243.314 125.544C243.648 125.82 243.911 126.171 244.08 126.57C244.109 126.625 244.152 126.671 244.205 126.704C244.258 126.738 244.318 126.757 244.38 126.76Z" fill="#263238"/>
<path d="M233.55 123.07C233.604 123.089 233.662 123.094 233.718 123.084C233.774 123.073 233.827 123.048 233.87 123.01C234.215 122.722 234.623 122.519 235.06 122.417C235.498 122.315 235.953 122.316 236.39 122.42C236.434 122.434 236.48 122.44 236.527 122.436C236.573 122.433 236.618 122.42 236.659 122.399C236.7 122.379 236.737 122.35 236.767 122.315C236.798 122.28 236.821 122.239 236.835 122.195C236.849 122.151 236.855 122.104 236.852 122.058C236.848 122.012 236.836 121.967 236.815 121.926C236.794 121.884 236.765 121.848 236.73 121.817C236.695 121.787 236.654 121.764 236.61 121.75C236.063 121.615 235.492 121.608 234.941 121.732C234.391 121.855 233.877 122.104 233.44 122.46C233.367 122.517 233.32 122.601 233.309 122.692C233.298 122.784 233.323 122.877 233.38 122.95C233.421 123.009 233.481 123.051 233.55 123.07Z" fill="#263238"/>
<path d="M262.5 158.09L263.33 159.22L264.08 160.28C264.58 160.99 265.03 161.7 265.5 162.41C266.41 163.84 267.27 165.29 268.1 166.75C269.763 169.669 271.272 172.673 272.62 175.75C273.32 177.27 273.92 178.85 274.56 180.4C275.2 181.95 275.74 183.56 276.23 185.18C277.284 188.404 278.152 191.686 278.83 195.01L278.91 195.39C279.057 196.061 279.07 196.755 278.948 197.431C278.826 198.107 278.572 198.752 278.2 199.33C276.912 201.307 275.383 203.118 273.65 204.72C271.867 206.353 269.844 207.703 267.65 208.72C265.484 209.729 263.166 210.371 260.79 210.62C259.627 210.74 258.456 210.76 257.29 210.68C256.71 210.68 256.13 210.57 255.55 210.48L254.67 210.31L253.67 210.06C253.552 210.031 253.451 209.958 253.387 209.855C253.323 209.752 253.303 209.628 253.33 209.51L254.71 203.71C254.71 203.66 254.97 203.65 255.13 203.61L255.68 203.5C256.06 203.42 256.43 203.33 256.81 203.23C257.551 203.029 258.276 202.775 258.98 202.47C260.343 201.91 261.619 201.16 262.77 200.24C265.022 198.387 266.821 196.044 268.03 193.39L267.4 197.71C266.54 194.88 265.63 192.08 264.53 189.31C263.43 186.54 262.23 183.82 260.92 181.14C259.61 178.46 258.21 175.81 256.7 173.23C255.96 171.94 255.18 170.67 254.4 169.41L253.21 167.55L252.62 166.65L252.07 165.85L251.87 165.55C250.881 164.14 250.492 162.395 250.789 160.699C251.086 159.003 252.045 157.494 253.455 156.505C254.865 155.516 256.609 155.127 258.306 155.424C260.002 155.721 261.511 156.68 262.5 158.09Z" fill="#263238"/>
<path d="M249.28 209.48L247.13 213L256.46 212.63C256.46 212.63 258.91 206.35 255.57 205.36L254.27 205.71C252.191 206.292 250.408 207.639 249.28 209.48Z" fill="#FF8B7B"/>
<path d="M253.12 204.55C252.448 205.004 251.87 205.585 251.42 206.26C253.96 207.64 257.5 212.34 257.5 212.34L258.32 209.76C258.424 209.427 258.454 209.075 258.407 208.73C258.361 208.384 258.239 208.053 258.05 207.76L256.5 205.26C256.331 204.984 256.107 204.747 255.843 204.561C255.578 204.375 255.279 204.245 254.963 204.178C254.646 204.112 254.32 204.111 254.003 204.174C253.686 204.238 253.386 204.366 253.12 204.55Z" fill="#6777EF"/>
<path d="M247.95 218.42L255.64 217.74L256.46 212.63L247.13 213L247.95 218.42Z" fill="#FF8B7B"/>
<path d="M153.56 96.3402L153.05 95.4802C154.516 94.6111 156.044 93.8491 157.62 93.2002L158 94.1302C156.467 94.7557 154.983 95.4944 153.56 96.3402Z" fill="#6777EF"/>
<path d="M138.96 114L137.96 113.66C140.331 107.096 144.619 101.396 150.27 97.3003L150.86 98.1103C145.388 102.092 141.241 107.629 138.96 114Z" fill="#6777EF"/>
<path d="M170.7 156.17C187.699 156.17 201.48 142.39 201.48 125.39C201.48 108.391 187.699 94.6104 170.7 94.6104C153.701 94.6104 139.92 108.391 139.92 125.39C139.92 142.39 153.701 156.17 170.7 156.17Z" fill="#6777EF"/>
<path opacity="0.6" d="M196.41 125.39C196.408 131.388 194.309 137.197 190.476 141.811C186.643 146.425 181.318 149.553 175.422 150.655C169.525 151.756 163.43 150.762 158.19 147.843C152.949 144.924 148.895 140.265 146.727 134.672C144.56 129.08 144.416 122.905 146.321 117.217C148.226 111.53 152.059 106.687 157.158 103.528C162.256 100.368 168.299 99.0909 174.24 99.9168C180.181 100.743 185.647 103.62 189.69 108.05C189.698 108.047 189.706 108.045 189.715 108.045C189.724 108.045 189.732 108.047 189.74 108.05C194.051 112.794 196.431 118.98 196.41 125.39Z" fill="white"/>
<path d="M196.41 125.39C196.41 130.388 194.953 135.277 192.218 139.46C189.483 143.643 185.589 146.938 181.011 148.942C176.432 150.946 171.369 151.573 166.441 150.745C161.512 149.917 156.932 147.67 153.26 144.28C148.77 139.388 146.348 132.949 146.499 126.31C146.651 119.672 149.365 113.35 154.073 108.667C158.781 103.985 165.118 101.306 171.757 101.191C178.396 101.076 184.823 103.534 189.69 108.05C189.698 108.047 189.706 108.045 189.715 108.045C189.724 108.045 189.732 108.047 189.74 108.05C194.051 112.794 196.431 118.98 196.41 125.39Z" fill="white"/>
<path d="M170.7 126.89C170.503 126.891 170.308 126.852 170.126 126.777C169.944 126.701 169.779 126.59 169.64 126.45L157.1 113.91C156.953 113.773 156.834 113.607 156.752 113.423C156.67 113.239 156.626 113.041 156.623 112.839C156.619 112.638 156.656 112.438 156.732 112.251C156.807 112.064 156.919 111.895 157.062 111.752C157.204 111.61 157.374 111.498 157.561 111.422C157.748 111.347 157.948 111.31 158.149 111.313C158.35 111.317 158.549 111.361 158.733 111.443C158.917 111.525 159.083 111.643 159.22 111.79L170.7 123.27L177.33 116.64C177.614 116.375 177.99 116.231 178.379 116.238C178.768 116.245 179.138 116.402 179.413 116.677C179.688 116.952 179.846 117.323 179.852 117.711C179.859 118.1 179.715 118.476 179.45 118.76L171.76 126.45C171.478 126.731 171.097 126.889 170.7 126.89Z" fill="#263238"/>
</g>
<defs>
<clipPath id="clip0_100_3313">
<rect width="500" height="500" fill="white" transform="translate(0.5)"/>
</clipPath>
</defs>
</svg>
